<svg id="Group_5" data-name="Group 5" xmlns="http://www.w3.org/2000/svg" width="58.346" height="47.283" viewBox="0 0 58.346 47.283">
  <path id="Path_9" data-name="Path 9" d="M40.758,37.238c-2.538,0-5.1-.027-7.637,0a.979.979,0,0,1-.955-.955c.027-1.575.321-.955,1.909-.955,4.52,0,8.845.014,13.365,0,4.968-.014,8.7-4.592,8.592-9.546A8.092,8.092,0,0,0,50.3,18.145a1.268,1.268,0,0,1-.955-.955,9.05,9.05,0,0,0-10.5-7.637c-1.67.244-3.429-.063-4.773.955-.407.3-.792.407-.955,0-2.09-5.1-6.886-7.705-12.41-7.637A12.852,12.852,0,0,0,8.3,14.327a8.816,8.816,0,0,0,0,2.864c.081.448.38.832,0,.955a9.439,9.439,0,0,0-6.683,8.592,8.611,8.611,0,0,0,8.592,8.592c4.846.027,9.474.027,14.32,0a.848.848,0,0,1,.955.955c-.041,1.4.457.955-.955.955H11.164C4.7,37.238-.726,32.216-.291,25.782c.271-4.045,2.131-6.691,5.728-8.592.394-.2.955-.493.955-.955C6.378,8.458,11.173,2.346,18.8.961A15.185,15.185,0,0,1,34.076,7.644c.366.57.317.258.955,0,6.665-2.66,14.342,1.642,16.229,8.592.109.421.547-.2.955,0,4.181,2,6.284,7.071,5.728,11.456a10.647,10.647,0,0,1-8.592,9.546,13.466,13.466,0,0,1-2.864,0C44.586,37.224,42.659,37.238,40.758,37.238Z" transform="translate(0.316 -0.734)" fill="#3ca5ff"/>
  <path id="Path_10" data-name="Path 10" d="M154.716,149.134c-2.267,2.28-4.592,4.538-6.682,6.683-.421.421-.52.475-.955,0-1.072-1.154-1.1-.81,0-1.909,2.728-2.728,4.909-5.836,7.637-8.592.339-.339.547-.407.955,0,2.959,3,6.56,6.587,9.546,9.546.326.326.38-.312,0,0-.434.353-1.421,1.909-1.909,1.909s-.561-1.516-.955-1.909c-1.751-1.737-3.036-3.036-4.773-4.773l-.955-.955c-.19.258,0,.724,0,.955,0,7.411-.027,15.5,0,22.912,0,.611-.33.027-.955,0-1.412-.041-.955.443-.955-.955V150.088C154.689,149.9,154.716,149.6,154.716,149.134Z" transform="translate(-126.052 -125.995)" fill="#3ca5ff"/>
</svg>
