<svg xmlns="http://www.w3.org/2000/svg" xmlns:xlink="http://www.w3.org/1999/xlink" width="163.496" height="41.872" viewBox="0 0 163.496 41.872">
  <defs>
    <clipPath id="clip-path">
      <path id="Path_11445" data-name="Path 11445" d="M298.5,494.944v41.28l20.8-4.3c2.28-.427,2.264-.864,2.206-4.007l-.04-23.85-7.273-7.383Z" transform="translate(-298.504 -494.944)" fill="none" clip-rule="evenodd"/>
    </clipPath>
    <linearGradient id="linear-gradient" x1="0.397" y1="0.644" x2="0.703" y2="0.216" gradientUnits="objectBoundingBox">
      <stop offset="0" stop-color="#00204f"/>
      <stop offset="0.208" stop-color="#002558"/>
      <stop offset="0.56" stop-color="#003573"/>
      <stop offset="1" stop-color="#004f9d"/>
    </linearGradient>
  </defs>
  <g id="Group_3710" data-name="Group 3710" transform="translate(-214.221 -494.664)">
    <path id="Path_11444" data-name="Path 11444" d="M259.428,494.944v41.28c7.217-1.5,14.491-2.742,21.651-4.492a2,2,0,0,0,1.241-1.1c.438-.957.077-23.516.071-26.558l-7.273-7.383Zm17.246,2.214c4.824.572,5.79,0,5.5,5.584Zm-41.042.336,22.951-2.55v41.28l-23.007-5.2Z" transform="translate(-21.105 0)" fill="none" stroke="#fff" stroke-miterlimit="2.613" stroke-width="0.5"/>
    <g id="Group_3708" data-name="Group 3708" transform="translate(238.323 494.944)">
      <g id="Group_3707" data-name="Group 3707" transform="translate(0 0)" clip-path="url(#clip-path)">
        <rect id="Rectangle_2080" data-name="Rectangle 2080" width="23.076" height="41.28" transform="translate(0 0)" fill="url(#linear-gradient)"/>
      </g>
    </g>
    <path id="Path_11446" data-name="Path 11446" d="M266.717,510.225l-18,1.762-.046,24.253,18.042,3.595Z" transform="translate(-29.239 -9.489)" fill="#fff" fill-rule="evenodd"/>
    <path id="Path_11447" data-name="Path 11447" d="M258.582,494.944v5.792l-18,1.762-.046,24.253,18.042,3.595v5.878l-23.007-5.2.056-33.528Z" transform="translate(-21.104 0)" fill="#004f9d" fill-rule="evenodd"/>
    <path id="Path_11448" data-name="Path 11448" d="M235.575,583.13l4.965-4.27,18.042,3.595v5.878Z" transform="translate(-21.104 -52.109)" fill="#00204f" fill-rule="evenodd"/>
    <path id="Path_11449" data-name="Path 11449" d="M235.723,497.494l4.955,5,18-1.762v-5.792Z" transform="translate(-21.196 0)" fill="#0089d0" fill-rule="evenodd"/>
    <path id="Path_11450" data-name="Path 11450" d="M349.5,506.37l-5.5-5.584c5.546.739,5.368.318,5.5,5.584" transform="translate(-88.435 -3.628)" fill="#0089d0" fill-rule="evenodd"/>
    <path id="Path_11451" data-name="Path 11451" d="M299.636,626.653V638.01h-4.192V619.937h3.716l9.082,10.774V619.937h4.191V638.01h-3.319Zm-25.1,2.333a10.228,10.228,0,0,1,.666-3.727,8.985,8.985,0,0,1,1.988-3.056,8.3,8.3,0,0,1,2.914-1.923,10.738,10.738,0,0,1,7.287,0,8.505,8.505,0,0,1,2.919,1.919,9.08,9.08,0,0,1,1.98,3.056,10.6,10.6,0,0,1,0,7.44,8.8,8.8,0,0,1-1.98,3.03,8.7,8.7,0,0,1-2.939,1.945,10.473,10.473,0,0,1-7.255.009,8.56,8.56,0,0,1-2.926-1.954,8.793,8.793,0,0,1-1.98-3.03A10.026,10.026,0,0,1,274.536,628.987Zm4.365,0a5.826,5.826,0,0,0,1.36,3.974,4.66,4.66,0,0,0,6.953,0,6.512,6.512,0,0,0,0-7.965,4.643,4.643,0,0,0-6.953,0A5.865,5.865,0,0,0,278.9,628.987Zm-20.283,9.023V619.937h6.25a8.917,8.917,0,0,1,5.043,1.168,3.934,3.934,0,0,1,1.7,3.471,3.829,3.829,0,0,1-.575,2.1,3.97,3.97,0,0,1-1.679,1.434,5.251,5.251,0,0,1,2.646,1.764,4.793,4.793,0,0,1,.872,2.951,4.609,4.609,0,0,1-1.67,3.89,8.135,8.135,0,0,1-5.022,1.292Zm6.457-10.928a2.635,2.635,0,0,0,1.712-.468,1.711,1.711,0,0,0,.562-1.407,1.983,1.983,0,0,0-.571-1.557,2.476,2.476,0,0,0-1.7-.512h-2.191v3.943Zm-2.191,7.621h2.456a4.234,4.234,0,0,0,2.347-.49,1.856,1.856,0,0,0,.7-1.628,2.007,2.007,0,0,0-.744-1.72,3.912,3.912,0,0,0-2.331-.556h-2.431Zm-20.358,3.307V619.937h6.254a8.3,8.3,0,0,1,5.1,1.279,4.709,4.709,0,0,1,1.646,3.964,4.45,4.45,0,0,1-.727,2.563,5.568,5.568,0,0,1-2.224,1.8,2.881,2.881,0,0,1,1.133.821,5.479,5.479,0,0,1,.877,1.455l2.7,6.192H252.5l-2.157-5.208a3.843,3.843,0,0,0-1.186-1.707,3.258,3.258,0,0,0-1.893-.467c-.062,0-.149,0-.252.013s-.186.013-.244.013v7.356Zm6.279-10.664a2.539,2.539,0,0,0,1.753-.525,2.042,2.042,0,0,0,.574-1.592,1.978,1.978,0,0,0-.6-1.557,2.515,2.515,0,0,0-1.728-.534h-2.038v4.207ZM222.383,638.01l7.387-18.073h4.89l6.6,18.073h-4.493l-1.211-3.519h-7.3L226.9,638.01Zm7.093-6.615h5l-2.372-6.88Zm-7.445,5.1a12.616,12.616,0,0,1-3.125,1.385,12.351,12.351,0,0,1-3.357.45,10.061,10.061,0,0,1-3.65-.644,8.323,8.323,0,0,1-2.914-1.9,8.8,8.8,0,0,1-1.956-3.048,10.292,10.292,0,0,1-.673-3.748,9.073,9.073,0,0,1,2.633-6.792,9.53,9.53,0,0,1,6.956-2.576,12.528,12.528,0,0,1,3.022.362,13.107,13.107,0,0,1,2.914,1.112v4.242a11.3,11.3,0,0,0-2.819-1.451,8.745,8.745,0,0,0-2.835-.48,5.414,5.414,0,0,0-4.034,1.486,5.573,5.573,0,0,0-1.472,4.1,5.69,5.69,0,0,0,1.406,4.044,4.9,4.9,0,0,0,3.778,1.513,8.692,8.692,0,0,0,3.063-.574,12.7,12.7,0,0,0,3.063-1.7Z" transform="translate(65.284 -118.169)" fill="#fff"/>
    <path id="Path_11452" data-name="Path 11452" d="M306.774,661.277v-3.42h1.071v.43a1.648,1.648,0,0,1,.529-.376,1.557,1.557,0,0,1,.623-.121,1.176,1.176,0,0,1,.632.155.982.982,0,0,1,.383.472,2.2,2.2,0,0,1,.622-.486,1.546,1.546,0,0,1,.676-.141,1.082,1.082,0,0,1,.861.341,1.444,1.444,0,0,1,.3.982v2.164h-1.078v-2.016a.981.981,0,0,0-.113-.541.418.418,0,0,0-.37-.162.708.708,0,0,0-.414.135,1.327,1.327,0,0,0-.352.405v2.178h-1.049v-2.016a.984.984,0,0,0-.113-.54.42.42,0,0,0-.371-.163.707.707,0,0,0-.413.135,1.254,1.254,0,0,0-.352.405v2.178Zm-3-2.046,1.329,0a.853.853,0,0,0-.2-.518.575.575,0,0,0-.442-.187.619.619,0,0,0-.462.187A.89.89,0,0,0,303.773,659.23Zm2.335,1.672a2.669,2.669,0,0,1-.738.337,3,3,0,0,1-.827.111,1.908,1.908,0,0,1-1.383-.484,1.773,1.773,0,0,1-.5-1.338,1.684,1.684,0,0,1,.49-1.265,1.8,1.8,0,0,1,1.307-.474,1.627,1.627,0,0,1,1.269.514,2.03,2.03,0,0,1,.465,1.416v.035h-2.423v.015a.8.8,0,0,0,.278.643,1.138,1.138,0,0,0,.761.236,1.9,1.9,0,0,0,.65-.116,2.81,2.81,0,0,0,.653-.342Zm-6.05-2.3h-.488v-.231l1.4-1.513h.163v1H302.3v.746h-1.167v1.263a.861.861,0,0,0,.112.526.514.514,0,0,0,.406.132,1.192,1.192,0,0,0,.306-.042,1.88,1.88,0,0,0,.343-.128l.008.805a3.07,3.07,0,0,1-.52.145,2.96,2.96,0,0,1-.517.047,1.145,1.145,0,0,1-.931-.336,1.838,1.838,0,0,1-.278-1.156Zm-3.333,2.491v-.762a4.7,4.7,0,0,0,.6.229,1.708,1.708,0,0,0,.464.081.886.886,0,0,0,.385-.065.208.208,0,0,0,.131-.195.249.249,0,0,0-.1-.193,1.894,1.894,0,0,0-.444-.229l-.116-.046q-.982-.407-.983-1.046a.958.958,0,0,1,.363-.781,1.474,1.474,0,0,1,.962-.3,2.6,2.6,0,0,1,.607.068,2.5,2.5,0,0,1,.558.206v.754a3.612,3.612,0,0,0-.605-.264,1.657,1.657,0,0,0-.489-.083.548.548,0,0,0-.3.069.217.217,0,0,0-.1.194q0,.166.585.408c.159.063.284.114.375.156a1.3,1.3,0,0,1,.545.389.9.9,0,0,1,.171.564.971.971,0,0,1-.365.815,1.66,1.66,0,0,1-1.042.286,3.09,3.09,0,0,1-.637-.063A2.38,2.38,0,0,1,296.724,661.093Zm-2.484,1.86h-1.129l1.013-2.227-1.3-2.871h1.154l.693,1.67.74-1.67h1.137Zm-5.3-2.078v-1.121a5.392,5.392,0,0,0,.962.495,2.245,2.245,0,0,0,.76.141,1.131,1.131,0,0,0,.563-.113.371.371,0,0,0,.191-.338.374.374,0,0,0-.119-.291,1.794,1.794,0,0,0-.554-.262,4.217,4.217,0,0,1-1.485-.775,1.349,1.349,0,0,1-.406-1.009,1.262,1.262,0,0,1,.528-1.05,2.2,2.2,0,0,1,1.376-.4,3.624,3.624,0,0,1,.862.105,4.393,4.393,0,0,1,.854.306V657.6a5.707,5.707,0,0,0-.912-.379,2.522,2.522,0,0,0-.735-.123,1.149,1.149,0,0,0-.549.1.327.327,0,0,0-.189.3.39.39,0,0,0,.17.3,1.791,1.791,0,0,0,.511.266c.048.019.122.047.221.083a6.593,6.593,0,0,1,1.035.458,1.34,1.34,0,0,1,.5.519,1.565,1.565,0,0,1,.167.743,1.3,1.3,0,0,1-.528,1.1,2.382,2.382,0,0,1-1.468.4,3.3,3.3,0,0,1-1.749-.49Zm-4.824-2.273h-.488v-.231l1.4-1.513h.163v1h1.167v.746H285.19v1.263a.857.857,0,0,0,.112.526.514.514,0,0,0,.406.132,1.184,1.184,0,0,0,.3-.042,1.884,1.884,0,0,0,.344-.128l.007.805a3.048,3.048,0,0,1-.519.145,2.96,2.96,0,0,1-.517.047,1.145,1.145,0,0,1-.931-.336,1.838,1.838,0,0,1-.278-1.156Zm-4.314,2.674v-3.42h1.071v.43a1.633,1.633,0,0,1,.531-.378,1.582,1.582,0,0,1,.635-.12,1.086,1.086,0,0,1,.862.341,1.444,1.444,0,0,1,.3.982v2.164h-1.078v-2.016a.953.953,0,0,0-.117-.533.416.416,0,0,0-.367-.17.7.7,0,0,0-.416.137,1.26,1.26,0,0,0-.349.4v2.178Zm-3-2.046,1.329,0a.857.857,0,0,0-.2-.518.576.576,0,0,0-.442-.187.621.621,0,0,0-.462.187A.89.89,0,0,0,276.8,659.23Zm2.335,1.672a2.677,2.677,0,0,1-.738.337,3,3,0,0,1-.827.111,1.909,1.909,0,0,1-1.384-.484,1.774,1.774,0,0,1-.5-1.338,1.684,1.684,0,0,1,.49-1.265,1.8,1.8,0,0,1,1.306-.474,1.627,1.627,0,0,1,1.27.514,2.03,2.03,0,0,1,.465,1.416v.035H276.8v.015a.8.8,0,0,0,.278.643,1.137,1.137,0,0,0,.761.236,1.906,1.906,0,0,0,.65-.116,2.812,2.812,0,0,0,.653-.342Zm-9.73.375v-3.42h1.072v.43a1.641,1.641,0,0,1,.529-.376,1.557,1.557,0,0,1,.623-.121,1.176,1.176,0,0,1,.632.155.986.986,0,0,1,.383.472,2.2,2.2,0,0,1,.622-.486,1.546,1.546,0,0,1,.676-.141,1.082,1.082,0,0,1,.861.341,1.444,1.444,0,0,1,.3.982v2.164h-1.078v-2.016a.98.98,0,0,0-.113-.541.417.417,0,0,0-.37-.162.708.708,0,0,0-.414.135,1.328,1.328,0,0,0-.352.405v2.178h-1.049v-2.016a.985.985,0,0,0-.113-.54.42.42,0,0,0-.371-.163.707.707,0,0,0-.413.135,1.254,1.254,0,0,0-.352.405v2.178Zm-3-2.046,1.329,0a.853.853,0,0,0-.2-.518.575.575,0,0,0-.442-.187.621.621,0,0,0-.463.187A.889.889,0,0,0,266.408,659.23Zm2.335,1.672a2.676,2.676,0,0,1-.738.337,3,3,0,0,1-.827.111,1.908,1.908,0,0,1-1.383-.484,1.772,1.772,0,0,1-.5-1.338,1.684,1.684,0,0,1,.49-1.265,1.8,1.8,0,0,1,1.306-.474,1.63,1.63,0,0,1,1.27.514,2.032,2.032,0,0,1,.465,1.416v.035H266.4v.015a.8.8,0,0,0,.278.643,1.137,1.137,0,0,0,.761.236,1.9,1.9,0,0,0,.65-.116,2.812,2.812,0,0,0,.653-.342Zm-6.383-.746a1.325,1.325,0,0,1-.678-.408,1.074,1.074,0,0,1-.222-.7,1,1,0,0,1,.459-.887,2.4,2.4,0,0,1,1.329-.3h1.736v.716h-.48a.991.991,0,0,1,.123.272,1.182,1.182,0,0,1,.039.313,1.008,1.008,0,0,1-.272.737,1.483,1.483,0,0,1-.822.37c-.086.017-.2.03-.342.043-.284.026-.426.1-.426.23s.195.2.584.241c.146.015.266.027.357.039a1.529,1.529,0,0,1,.834.329.865.865,0,0,1,.287.677.932.932,0,0,1-.462.843,3.331,3.331,0,0,1-2.66.02.817.817,0,0,1-.469-.738.679.679,0,0,1,.232-.516,1.529,1.529,0,0,1,.675-.331.683.683,0,0,1-.3-.166.356.356,0,0,1-.1-.257.425.425,0,0,1,.143-.327A.946.946,0,0,1,262.359,660.156Zm.718-1.643a.619.619,0,0,0-.446.16.62.62,0,0,0,0,.847.7.7,0,0,0,.891,0,.618.618,0,0,0,0-.847A.617.617,0,0,0,263.077,658.513Zm-.8,3.376a.339.339,0,0,0,.2.315,1.318,1.318,0,0,0,.6.106,1.367,1.367,0,0,0,.6-.106.333.333,0,0,0,.208-.307.324.324,0,0,0-.208-.293,1.3,1.3,0,0,0-.582-.106,1.444,1.444,0,0,0-.607.1A.319.319,0,0,0,262.279,661.89Zm-2.643-.93a1.722,1.722,0,0,1-.5.289,1.634,1.634,0,0,1-.56.094,1.047,1.047,0,0,1-.747-.24.936.936,0,0,1-.253-.713.8.8,0,0,1,.373-.677,6.36,6.36,0,0,1,1.637-.63c0-.012,0-.026,0-.039s0-.034,0-.059a.414.414,0,0,0-.164-.361.882.882,0,0,0-.507-.117,1.408,1.408,0,0,0-.592.14,2.3,2.3,0,0,0-.591.407l.014-.85a2.344,2.344,0,0,1,.683-.311,3.2,3.2,0,0,1,.838-.1,1.627,1.627,0,0,1,1.071.285,1.133,1.133,0,0,1,.332.91v1.363a.321.321,0,0,0,.032.167.124.124,0,0,0,.109.046.585.585,0,0,0,.142-.019,1.308,1.308,0,0,0,.2-.067v.6a3.381,3.381,0,0,1-.518.206,1.563,1.563,0,0,1-.428.065.727.727,0,0,1-.4-.1A.384.384,0,0,1,259.635,660.96Zm-.054-.5v-.837a2.857,2.857,0,0,0-.738.342.429.429,0,0,0-.186.347.348.348,0,0,0,.1.264.383.383,0,0,0,.278.1.727.727,0,0,0,.256-.054A1.525,1.525,0,0,0,259.581,660.459Zm-5.962.818v-3.42h1.071v.43a1.626,1.626,0,0,1,.531-.378,1.582,1.582,0,0,1,.635-.12,1.086,1.086,0,0,1,.862.341,1.444,1.444,0,0,1,.3.982v2.164h-1.078v-2.016a.953.953,0,0,0-.117-.533.416.416,0,0,0-.367-.17.7.7,0,0,0-.416.137,1.261,1.261,0,0,0-.349.4v2.178Zm-1.964-.317a1.721,1.721,0,0,1-.5.289,1.634,1.634,0,0,1-.56.094,1.047,1.047,0,0,1-.747-.24.936.936,0,0,1-.253-.713.8.8,0,0,1,.373-.677,6.36,6.36,0,0,1,1.637-.63c0-.012,0-.026,0-.039s0-.034,0-.059a.415.415,0,0,0-.164-.361.883.883,0,0,0-.507-.117,1.408,1.408,0,0,0-.593.14,2.308,2.308,0,0,0-.591.407l.015-.85a2.344,2.344,0,0,1,.683-.311,3.2,3.2,0,0,1,.838-.1,1.626,1.626,0,0,1,1.071.285,1.133,1.133,0,0,1,.332.91v1.363a.321.321,0,0,0,.032.167.125.125,0,0,0,.109.046.593.593,0,0,0,.143-.019,1.333,1.333,0,0,0,.2-.067v.6a3.385,3.385,0,0,1-.518.206,1.56,1.56,0,0,1-.428.065.729.729,0,0,1-.4-.1A.385.385,0,0,1,251.655,660.96Zm-.054-.5v-.837a2.856,2.856,0,0,0-.738.342.429.429,0,0,0-.186.347.35.35,0,0,0,.1.264.384.384,0,0,0,.278.1.722.722,0,0,0,.256-.054A1.507,1.507,0,0,0,251.6,660.459Zm-8.156.818V656.23h1.114l1.619,2.032,1.626-2.032h1.114v5.046h-1.241v-3.122l-1.5,1.844-1.485-1.844v3.122Zm-4.906-2.674h-.488v-.231l1.4-1.513h.162v1h1.167v.746H239.61v1.263a.861.861,0,0,0,.112.526.514.514,0,0,0,.406.132,1.185,1.185,0,0,0,.306-.042,1.88,1.88,0,0,0,.343-.128l.008.805a3.078,3.078,0,0,1-.519.145,2.965,2.965,0,0,1-.517.047,1.145,1.145,0,0,1-.931-.336,1.838,1.838,0,0,1-.278-1.156Zm-4.314,2.674v-3.42H235.3v.43a1.619,1.619,0,0,1,.531-.378,1.58,1.58,0,0,1,.635-.12,1.085,1.085,0,0,1,.862.341,1.441,1.441,0,0,1,.3.982v2.164h-1.078v-2.016a.953.953,0,0,0-.117-.533.414.414,0,0,0-.367-.17.7.7,0,0,0-.416.137,1.253,1.253,0,0,0-.349.4v2.178Zm-3-2.046,1.33,0a.856.856,0,0,0-.2-.518.577.577,0,0,0-.442-.187.621.621,0,0,0-.462.187A.893.893,0,0,0,231.224,659.23Zm2.335,1.672a2.666,2.666,0,0,1-.737.337,3,3,0,0,1-.827.111,1.909,1.909,0,0,1-1.384-.484,1.775,1.775,0,0,1-.5-1.338,1.682,1.682,0,0,1,.49-1.265,1.8,1.8,0,0,1,1.306-.474,1.628,1.628,0,0,1,1.27.514,2.032,2.032,0,0,1,.465,1.416v.035h-2.424v.015a.8.8,0,0,0,.278.643,1.137,1.137,0,0,0,.761.236,1.906,1.906,0,0,0,.65-.116,2.8,2.8,0,0,0,.652-.342Zm-9.73.375v-3.42H224.9v.43a1.644,1.644,0,0,1,.53-.376,1.555,1.555,0,0,1,.623-.121,1.176,1.176,0,0,1,.632.155.989.989,0,0,1,.383.472,2.21,2.21,0,0,1,.622-.486,1.55,1.55,0,0,1,.676-.141,1.082,1.082,0,0,1,.861.341,1.444,1.444,0,0,1,.3.982v2.164h-1.078v-2.016a.981.981,0,0,0-.113-.541.419.419,0,0,0-.37-.162.706.706,0,0,0-.413.135,1.321,1.321,0,0,0-.353.405v2.178h-1.049v-2.016a.984.984,0,0,0-.113-.54.419.419,0,0,0-.371-.163.708.708,0,0,0-.413.135,1.269,1.269,0,0,0-.352.405v2.178Zm-1.855-.429a1.681,1.681,0,0,1-.529.378,1.6,1.6,0,0,1-.63.117,1.093,1.093,0,0,1-.864-.341,1.43,1.43,0,0,1-.3-.98v-2.165h1.079v2.018a.949.949,0,0,0,.117.533.412.412,0,0,0,.366.167.727.727,0,0,0,.419-.135,1.171,1.171,0,0,0,.347-.4v-2.181h1.078v3.42h-1.078Zm-2.926.275a2.272,2.272,0,0,1-.511.166,2.98,2.98,0,0,1-.582.054,2.11,2.11,0,0,1-1.457-.478,1.645,1.645,0,0,1-.538-1.294,1.685,1.685,0,0,1,.532-1.3,2.013,2.013,0,0,1,1.419-.49,2.685,2.685,0,0,1,.549.056,2.888,2.888,0,0,1,.529.167v.841a3.654,3.654,0,0,0-.5-.167,1.82,1.82,0,0,0-.417-.054,1,1,0,0,0-.722.251.918.918,0,0,0-.26.694.908.908,0,0,0,.266.7,1.071,1.071,0,0,0,.759.248,1.789,1.789,0,0,0,.441-.057,2.993,2.993,0,0,0,.492-.172Zm-7.212-1.551a1.7,1.7,0,0,1,.521-1.286,1.881,1.881,0,0,1,1.354-.5,1.9,1.9,0,0,1,1.361.5,1.828,1.828,0,0,1,0,2.562,2.116,2.116,0,0,1-2.716,0A1.679,1.679,0,0,1,211.836,659.571Zm1.108,0a1.082,1.082,0,0,0,.21.7.727.727,0,0,0,1.117,0,1.271,1.271,0,0,0,0-1.4.715.715,0,0,0-1.113,0A1.085,1.085,0,0,0,212.944,659.57Zm-6.5,1.707V656.23h1.894a4.969,4.969,0,0,1,1.26.123,2.493,2.493,0,0,1,1.555,1.275,2.644,2.644,0,0,1-.054,2.348,2.553,2.553,0,0,1-.877.917,2.249,2.249,0,0,1-.718.294,5.691,5.691,0,0,1-1.166.089Zm1.263-4.027v3.007h.941a1.392,1.392,0,0,0,1.048-.421,1.651,1.651,0,0,0,0-2.167,1.394,1.394,0,0,0-1.048-.419Z" transform="translate(65.248 -133.473)" fill="#fff"/>
  </g>
</svg>
