<svg xmlns="http://www.w3.org/2000/svg" width="34.737" height="37.887" viewBox="0 0 34.737 37.887">
  <g id="Group_1165" data-name="Group 1165" transform="translate(0 0)">
    <path id="Path_1711" data-name="Path 1711" d="M184.337,7.5H165.359a2.963,2.963,0,0,0-3.078,2.832V33.72a2.963,2.963,0,0,0,3.078,2.832h18.977a2.963,2.963,0,0,0,3.078-2.832V10.332A2.963,2.963,0,0,0,184.337,7.5Z" transform="translate(-152.678 -7.5)" fill="#f9f097"/>
    <path id="Path_1713" data-name="Path 1713" d="M126.39,65.447H107.412a2.963,2.963,0,0,0-3.078,2.832V91.667a2.963,2.963,0,0,0,3.078,2.832H126.39a2.963,2.963,0,0,0,3.078-2.832V68.279A2.963,2.963,0,0,0,126.39,65.447Z" transform="translate(-99.533 -61.03)" fill="#a4e6ff"/>
    <path id="Path_1715" data-name="Path 1715" d="M68.442,123.394H53.669l-2.385,4.8-4.9,1.9v19.52a2.963,2.963,0,0,0,3.078,2.832H68.442a2.963,2.963,0,0,0,3.078-2.832V126.226A2.963,2.963,0,0,0,68.442,123.394Z" transform="translate(-46.387 -114.559)" fill="#ff97c0"/>
    <path id="Path_1716" data-name="Path 1716" d="M53.669,123.394l-2.385,4.8-4.9,1.9v2.287h5.26a4.344,4.344,0,0,0,4.508-4.148v-4.839Z" transform="translate(-46.387 -114.559)" fill="#ff71a7"/>
    <path id="Path_1717" data-name="Path 1717" d="M46.387,130.094h5.26a1.947,1.947,0,0,0,2.022-1.861v-4.839Z" transform="translate(-46.387 -114.559)" fill="#ff97c0"/>
  </g>
</svg>
