<svg xmlns="http://www.w3.org/2000/svg" xmlns:xlink="http://www.w3.org/1999/xlink" width="161.994" height="124.022" viewBox="0 0 161.994 124.022">
  <defs>
    <clipPath id="clip-path">
      <path id="Path_11445" data-name="Path 11445" d="M298.5,494.944v63.04l31.759-6.562c3.481-.653,3.457-1.319,3.368-6.119l-.061-36.422-11.106-11.275Z" transform="translate(-298.504 -494.944)" fill="none" clip-rule="evenodd"/>
    </clipPath>
    <linearGradient id="linear-gradient" x1="0.397" y1="0.644" x2="0.703" y2="0.216" gradientUnits="objectBoundingBox">
      <stop offset="0" stop-color="#00204f"/>
      <stop offset="0.208" stop-color="#002558"/>
      <stop offset="0.56" stop-color="#003573"/>
      <stop offset="1" stop-color="#004f9d"/>
    </linearGradient>
  </defs>
  <g id="Group_3709" data-name="Group 3709" transform="translate(-169.777 -494.664)">
    <path id="Path_11444" data-name="Path 11444" d="M272,494.944v63.04c11.021-2.287,22.13-4.188,33.063-6.86a3.05,3.05,0,0,0,1.895-1.686c.669-1.461.118-35.912.108-40.558l-11.106-11.275Zm26.337,3.382c7.367.874,8.842,0,8.4,8.528Zm-62.678.512,35.049-3.894v63.04l-35.134-7.945Z" transform="translate(-21.105 0)" fill="none" stroke="#fff" stroke-miterlimit="2.613" stroke-width="0.5"/>
    <g id="Group_3708" data-name="Group 3708" transform="translate(250.897 494.944)">
      <g id="Group_3707" data-name="Group 3707" transform="translate(0 0)" clip-path="url(#clip-path)">
        <rect id="Rectangle_2080" data-name="Rectangle 2080" width="35.24" height="63.04" transform="translate(0 0)" fill="url(#linear-gradient)"/>
      </g>
    </g>
    <path id="Path_11446" data-name="Path 11446" d="M276.227,510.225l-27.482,2.691-.07,37.038,27.552,5.49Z" transform="translate(-26.621 -6.436)" fill="#fff" fill-rule="evenodd"/>
    <path id="Path_11447" data-name="Path 11447" d="M270.71,494.944v8.846l-27.482,2.691-.07,37.038,27.552,5.49v8.976l-35.135-7.945.085-51.2Z" transform="translate(-21.104 0)" fill="#004f9d" fill-rule="evenodd"/>
    <path id="Path_11448" data-name="Path 11448" d="M235.575,585.381l7.583-6.521,27.552,5.49v8.976Z" transform="translate(-21.104 -35.342)" fill="#00204f" fill-rule="evenodd"/>
    <path id="Path_11449" data-name="Path 11449" d="M235.723,498.838l7.568,7.642,27.482-2.691v-8.846Z" transform="translate(-21.166 0)" fill="#0089d0" fill-rule="evenodd"/>
    <path id="Path_11450" data-name="Path 11450" d="M352.4,509.314l-8.4-8.528c8.469,1.128,8.2.486,8.4,8.528" transform="translate(-66.77 -2.461)" fill="#0089d0" fill-rule="evenodd"/>
    <path id="Path_11451" data-name="Path 11451" d="M348.807,630.361V647.7h-6.4V620.1h5.676l13.869,16.454V620.1h6.4v27.6h-5.068Zm-38.33,3.564a15.619,15.619,0,0,1,1.017-5.692,13.721,13.721,0,0,1,3.036-4.667,12.667,12.667,0,0,1,4.45-2.936,16.4,16.4,0,0,1,11.129.006,12.989,12.989,0,0,1,4.457,2.93,13.867,13.867,0,0,1,3.023,4.667,16.194,16.194,0,0,1,0,11.363,13.438,13.438,0,0,1-3.023,4.626,13.282,13.282,0,0,1-4.488,2.971,15.993,15.993,0,0,1-11.079.013,13.072,13.072,0,0,1-4.469-2.984,13.428,13.428,0,0,1-3.024-4.626A15.311,15.311,0,0,1,310.477,633.925Zm6.666,0a8.9,8.9,0,0,0,2.077,6.068,7.117,7.117,0,0,0,10.619,0,9.945,9.945,0,0,0,0-12.163,7.09,7.09,0,0,0-10.619,0A8.957,8.957,0,0,0,317.142,633.925ZM286.167,647.7V620.1h9.544q5.1,0,7.7,1.784a6.008,6.008,0,0,1,2.6,5.3,5.847,5.847,0,0,1-.878,3.212,6.063,6.063,0,0,1-2.564,2.189,8.019,8.019,0,0,1,4.04,2.694,7.319,7.319,0,0,1,1.332,4.506,7.039,7.039,0,0,1-2.55,5.94q-2.546,1.971-7.669,1.973Zm9.86-16.689a4.023,4.023,0,0,0,2.614-.714,2.614,2.614,0,0,0,.858-2.148,3.029,3.029,0,0,0-.871-2.377,3.781,3.781,0,0,0-2.6-.782h-3.345v6.021Zm-3.345,11.639h3.75a6.465,6.465,0,0,0,3.585-.748,2.835,2.835,0,0,0,1.074-2.486,3.065,3.065,0,0,0-1.137-2.627,5.974,5.974,0,0,0-3.56-.848h-3.712Zm-31.09,5.051V620.1h9.55q5.265,0,7.784,1.953t2.513,6.054a6.8,6.8,0,0,1-1.111,3.914,8.5,8.5,0,0,1-3.4,2.747,4.4,4.4,0,0,1,1.729,1.253A8.365,8.365,0,0,1,280,638.249l4.129,9.455h-7.3l-3.295-7.954a5.87,5.87,0,0,0-1.812-2.606,4.976,4.976,0,0,0-2.891-.714c-.095,0-.227.006-.385.019s-.284.02-.373.02V647.7Zm9.589-16.285a3.877,3.877,0,0,0,2.677-.8,3.118,3.118,0,0,0,.877-2.431,3.02,3.02,0,0,0-.915-2.378,3.84,3.84,0,0,0-2.639-.815h-3.112v6.425ZM230.831,647.7l11.281-27.6h7.468l10.075,27.6h-6.862l-1.85-5.375H239.795l-2.071,5.375Zm10.833-10.1H249.3l-3.623-10.507Zm-11.369,7.786a19.27,19.27,0,0,1-4.772,2.115,18.865,18.865,0,0,1-5.126.687,15.365,15.365,0,0,1-5.573-.983,12.711,12.711,0,0,1-4.45-2.9,13.443,13.443,0,0,1-2.987-4.654,15.717,15.717,0,0,1-1.028-5.724,13.855,13.855,0,0,1,4.021-10.372A14.553,14.553,0,0,1,221,619.619a19.131,19.131,0,0,1,4.615.552,20.015,20.015,0,0,1,4.45,1.7v6.479a17.26,17.26,0,0,0-4.305-2.216,13.357,13.357,0,0,0-4.33-.734,8.268,8.268,0,0,0-6.161,2.27,8.511,8.511,0,0,0-2.248,6.257,8.689,8.689,0,0,0,2.147,6.176,7.478,7.478,0,0,0,5.77,2.311,13.274,13.274,0,0,0,4.678-.876,19.4,19.4,0,0,0,4.677-2.6Z" transform="translate(-36.58 -43.739)" fill="#004f9d"/>
    <path id="Path_11452" data-name="Path 11452" d="M359.662,663.98v-5.224H361.3v.657a2.518,2.518,0,0,1,.808-.575,2.377,2.377,0,0,1,.951-.185,1.8,1.8,0,0,1,.965.237,1.5,1.5,0,0,1,.585.721,3.368,3.368,0,0,1,.951-.743,2.359,2.359,0,0,1,1.032-.215,1.653,1.653,0,0,1,1.314.521,2.206,2.206,0,0,1,.457,1.5v3.3h-1.647V660.9a1.5,1.5,0,0,0-.173-.826.639.639,0,0,0-.564-.248,1.08,1.08,0,0,0-.632.206,2.025,2.025,0,0,0-.538.619v3.327h-1.6V660.9a1.5,1.5,0,0,0-.173-.824.642.642,0,0,0-.566-.249,1.079,1.079,0,0,0-.63.206,1.915,1.915,0,0,0-.538.619v3.327Zm-4.582-3.125,2.03-.006a1.3,1.3,0,0,0-.306-.792.878.878,0,0,0-.674-.286.946.946,0,0,0-.705.286A1.36,1.36,0,0,0,355.079,660.855Zm3.565,2.553a4.079,4.079,0,0,1-1.127.515,4.582,4.582,0,0,1-1.264.169,2.914,2.914,0,0,1-2.113-.739,2.707,2.707,0,0,1-.766-2.043,2.572,2.572,0,0,1,.748-1.932,2.754,2.754,0,0,1,2-.724,2.485,2.485,0,0,1,1.938.785,3.1,3.1,0,0,1,.711,2.162v.054h-3.7v.023a1.219,1.219,0,0,0,.425.981,1.737,1.737,0,0,0,1.162.361,2.9,2.9,0,0,0,.992-.178,4.289,4.289,0,0,0,1-.522ZM349.4,659.9h-.745v-.353l2.132-2.31h.248v1.523h1.783V659.9H351.04v1.929a1.315,1.315,0,0,0,.171.8.785.785,0,0,0,.62.2,1.823,1.823,0,0,0,.467-.065,2.871,2.871,0,0,0,.524-.2l.012,1.23a4.69,4.69,0,0,1-.794.222,4.519,4.519,0,0,1-.79.072,1.748,1.748,0,0,1-1.421-.514,2.807,2.807,0,0,1-.424-1.766Zm-5.091,3.8v-1.164a7.186,7.186,0,0,0,.918.349,2.611,2.611,0,0,0,.709.124,1.351,1.351,0,0,0,.588-.1.317.317,0,0,0,.2-.3.381.381,0,0,0-.149-.3,2.894,2.894,0,0,0-.679-.35c-.036-.015-.1-.037-.177-.071q-1.5-.622-1.5-1.6a1.462,1.462,0,0,1,.555-1.193,2.251,2.251,0,0,1,1.469-.452,3.967,3.967,0,0,1,.927.1,3.813,3.813,0,0,1,.852.314v1.151a5.51,5.51,0,0,0-.925-.4,2.53,2.53,0,0,0-.747-.127.838.838,0,0,0-.459.105.332.332,0,0,0-.16.3q0,.254.893.623c.242.1.434.175.573.239a1.99,1.99,0,0,1,.832.595,1.379,1.379,0,0,1,.262.861,1.483,1.483,0,0,1-.558,1.245,2.534,2.534,0,0,1-1.591.437,4.723,4.723,0,0,1-.973-.1A3.634,3.634,0,0,1,344.314,663.7Zm-3.793,2.841H338.8l1.547-3.4-1.988-4.384h1.762l1.059,2.551,1.13-2.551h1.737Zm-8.089-3.174v-1.712a8.235,8.235,0,0,0,1.469.756,3.427,3.427,0,0,0,1.161.215,1.728,1.728,0,0,0,.859-.173.566.566,0,0,0,.291-.516.572.572,0,0,0-.182-.444,2.737,2.737,0,0,0-.846-.4,6.441,6.441,0,0,1-2.267-1.183,2.06,2.06,0,0,1-.619-1.54,1.927,1.927,0,0,1,.807-1.6,3.355,3.355,0,0,1,2.1-.618,5.535,5.535,0,0,1,1.316.161,6.714,6.714,0,0,1,1.3.468v1.584a8.719,8.719,0,0,0-1.393-.579,3.85,3.85,0,0,0-1.122-.188,1.755,1.755,0,0,0-.838.16.5.5,0,0,0-.289.457.6.6,0,0,0,.259.455,2.736,2.736,0,0,0,.78.406c.074.03.186.071.337.126a10.064,10.064,0,0,1,1.581.7,2.048,2.048,0,0,1,.758.793,2.39,2.39,0,0,1,.256,1.134,1.99,1.99,0,0,1-.807,1.679,3.638,3.638,0,0,1-2.241.611,5.033,5.033,0,0,1-2.672-.748Zm-7.368-3.471h-.745v-.353l2.132-2.31h.248v1.523h1.783V659.9H326.7v1.929a1.309,1.309,0,0,0,.171.8.785.785,0,0,0,.62.2,1.81,1.81,0,0,0,.466-.065,2.879,2.879,0,0,0,.525-.2l.011,1.23a4.655,4.655,0,0,1-.793.222,4.518,4.518,0,0,1-.79.072,1.748,1.748,0,0,1-1.421-.514,2.806,2.806,0,0,1-.425-1.766Zm-6.589,4.084v-5.224h1.635v.657a2.493,2.493,0,0,1,.811-.577,2.416,2.416,0,0,1,.97-.183,1.659,1.659,0,0,1,1.317.521,2.205,2.205,0,0,1,.456,1.5v3.3h-1.647V660.9a1.456,1.456,0,0,0-.178-.814.636.636,0,0,0-.561-.259,1.073,1.073,0,0,0-.635.208,1.923,1.923,0,0,0-.533.617v3.327Zm-4.582-3.125,2.03-.006a1.309,1.309,0,0,0-.306-.792.88.88,0,0,0-.675-.286.949.949,0,0,0-.705.286A1.359,1.359,0,0,0,313.894,660.855Zm3.565,2.553a4.091,4.091,0,0,1-1.127.515,4.582,4.582,0,0,1-1.264.169,2.916,2.916,0,0,1-2.114-.739,2.71,2.71,0,0,1-.765-2.043,2.572,2.572,0,0,1,.748-1.932,2.754,2.754,0,0,1,1.995-.724,2.485,2.485,0,0,1,1.939.785,3.1,3.1,0,0,1,.711,2.162v.054h-3.7v.023a1.218,1.218,0,0,0,.425.981,1.736,1.736,0,0,0,1.162.361,2.909,2.909,0,0,0,.992-.178,4.291,4.291,0,0,0,1-.522Zm-14.859.572v-5.224h1.636v.657a2.508,2.508,0,0,1,.808-.575,2.377,2.377,0,0,1,.951-.185,1.8,1.8,0,0,1,.965.237,1.506,1.506,0,0,1,.585.721,3.363,3.363,0,0,1,.95-.743,2.359,2.359,0,0,1,1.032-.215,1.652,1.652,0,0,1,1.314.521,2.205,2.205,0,0,1,.457,1.5v3.3h-1.647V660.9a1.5,1.5,0,0,0-.173-.826.638.638,0,0,0-.564-.248,1.081,1.081,0,0,0-.632.206,2.028,2.028,0,0,0-.538.619v3.327h-1.6V660.9a1.5,1.5,0,0,0-.172-.824.642.642,0,0,0-.566-.249,1.079,1.079,0,0,0-.63.206,1.915,1.915,0,0,0-.538.619v3.327Zm-4.582-3.125,2.03-.006a1.3,1.3,0,0,0-.306-.792.879.879,0,0,0-.674-.286.949.949,0,0,0-.706.286A1.358,1.358,0,0,0,298.017,660.855Zm3.565,2.553a4.091,4.091,0,0,1-1.127.515,4.582,4.582,0,0,1-1.264.169,2.914,2.914,0,0,1-2.113-.739,2.707,2.707,0,0,1-.766-2.043,2.572,2.572,0,0,1,.748-1.932,2.754,2.754,0,0,1,1.995-.724,2.489,2.489,0,0,1,1.94.785,3.1,3.1,0,0,1,.71,2.162v.054h-3.7v.023a1.218,1.218,0,0,0,.425.981,1.737,1.737,0,0,0,1.162.361,2.9,2.9,0,0,0,.992-.178,4.292,4.292,0,0,0,1-.522Zm-9.748-1.14a2.024,2.024,0,0,1-1.036-.624,1.641,1.641,0,0,1-.339-1.068,1.524,1.524,0,0,1,.7-1.354,3.67,3.67,0,0,1,2.029-.466h2.651v1.094h-.734a1.514,1.514,0,0,1,.188.415,1.806,1.806,0,0,1,.06.478,1.539,1.539,0,0,1-.415,1.126,2.264,2.264,0,0,1-1.255.565c-.131.026-.306.046-.523.066-.434.039-.65.158-.65.351s.3.311.892.368c.224.023.406.042.545.06a2.336,2.336,0,0,1,1.273.5,1.321,1.321,0,0,1,.438,1.034,1.423,1.423,0,0,1-.705,1.287,5.087,5.087,0,0,1-4.062.03,1.248,1.248,0,0,1-.716-1.127,1.037,1.037,0,0,1,.355-.788,2.336,2.336,0,0,1,1.031-.506,1.044,1.044,0,0,1-.455-.254.544.544,0,0,1-.153-.392.649.649,0,0,1,.218-.5A1.444,1.444,0,0,1,291.834,662.268Zm1.1-2.508a.945.945,0,0,0-.682.245.946.946,0,0,0,0,1.294,1.07,1.07,0,0,0,1.361,0,.944.944,0,0,0,0-1.294A.942.942,0,0,0,292.931,659.76Zm-1.219,5.156a.518.518,0,0,0,.307.481,2.014,2.014,0,0,0,.912.161,2.087,2.087,0,0,0,.923-.161.508.508,0,0,0,.318-.469.494.494,0,0,0-.318-.448,1.993,1.993,0,0,0-.889-.161,2.206,2.206,0,0,0-.927.156A.488.488,0,0,0,291.712,664.916Zm-4.036-1.42a2.629,2.629,0,0,1-.769.442,2.493,2.493,0,0,1-.855.143,1.6,1.6,0,0,1-1.141-.366,1.43,1.43,0,0,1-.386-1.089,1.225,1.225,0,0,1,.57-1.035,9.709,9.709,0,0,1,2.5-.963c0-.018.005-.039.007-.06s0-.052,0-.09a.632.632,0,0,0-.25-.551,1.346,1.346,0,0,0-.775-.178,2.15,2.15,0,0,0-.9.214,3.508,3.508,0,0,0-.9.621l.022-1.3a3.58,3.58,0,0,1,1.044-.475,4.884,4.884,0,0,1,1.28-.156,2.485,2.485,0,0,1,1.636.435,1.729,1.729,0,0,1,.508,1.389v2.081a.49.49,0,0,0,.049.255.19.19,0,0,0,.166.071.891.891,0,0,0,.217-.028,1.994,1.994,0,0,0,.3-.1v.914a5.164,5.164,0,0,1-.791.314,2.389,2.389,0,0,1-.653.1,1.11,1.11,0,0,1-.615-.147A.586.586,0,0,1,287.675,663.5Zm-.082-.766v-1.279a4.364,4.364,0,0,0-1.127.522.656.656,0,0,0-.284.53.531.531,0,0,0,.155.4.585.585,0,0,0,.425.149,1.11,1.11,0,0,0,.391-.083A2.322,2.322,0,0,0,287.593,662.73Zm-9.1,1.249v-5.224h1.635v.657a2.483,2.483,0,0,1,.811-.577,2.415,2.415,0,0,1,.97-.183,1.659,1.659,0,0,1,1.317.521,2.2,2.2,0,0,1,.456,1.5v3.3H282.03V660.9a1.455,1.455,0,0,0-.178-.814.636.636,0,0,0-.561-.259,1.073,1.073,0,0,0-.635.208,1.925,1.925,0,0,0-.532.617v3.327Zm-3-.484a2.628,2.628,0,0,1-.769.442,2.493,2.493,0,0,1-.855.143,1.6,1.6,0,0,1-1.141-.366,1.429,1.429,0,0,1-.386-1.089,1.225,1.225,0,0,1,.57-1.035,9.711,9.711,0,0,1,2.5-.963.606.606,0,0,0,.007-.06c0-.022,0-.052,0-.09a.634.634,0,0,0-.25-.551,1.348,1.348,0,0,0-.775-.178,2.15,2.15,0,0,0-.905.214,3.524,3.524,0,0,0-.9.621l.023-1.3a3.581,3.581,0,0,1,1.044-.475,4.879,4.879,0,0,1,1.28-.156,2.483,2.483,0,0,1,1.635.435,1.729,1.729,0,0,1,.508,1.389v2.081a.49.49,0,0,0,.049.255.191.191,0,0,0,.166.071.9.9,0,0,0,.218-.028,2.032,2.032,0,0,0,.3-.1v.914a5.172,5.172,0,0,1-.791.314,2.386,2.386,0,0,1-.653.1,1.112,1.112,0,0,1-.615-.147A.588.588,0,0,1,275.489,663.5Zm-.082-.766v-1.279a4.361,4.361,0,0,0-1.127.522.656.656,0,0,0-.284.53.534.534,0,0,0,.154.4.587.587,0,0,0,.425.149,1.1,1.1,0,0,0,.391-.083A2.3,2.3,0,0,0,275.406,662.73Zm-12.456,1.249v-7.707h1.7l2.473,3.1,2.484-3.1h1.7v7.707h-1.9v-4.769l-2.29,2.816-2.268-2.816v4.769Zm-7.492-4.084h-.745v-.353l2.132-2.31h.248v1.523h1.783V659.9h-1.783v1.929a1.315,1.315,0,0,0,.171.8.785.785,0,0,0,.62.2,1.811,1.811,0,0,0,.467-.065,2.873,2.873,0,0,0,.524-.2l.012,1.23a4.7,4.7,0,0,1-.793.222,4.526,4.526,0,0,1-.79.072,1.748,1.748,0,0,1-1.421-.514,2.806,2.806,0,0,1-.425-1.766Zm-6.589,4.084v-5.224h1.635v.657a2.471,2.471,0,0,1,.811-.577,2.411,2.411,0,0,1,.97-.183,1.656,1.656,0,0,1,1.316.521,2.2,2.2,0,0,1,.457,1.5v3.3h-1.647V660.9a1.455,1.455,0,0,0-.179-.814.633.633,0,0,0-.56-.259,1.073,1.073,0,0,0-.635.208,1.913,1.913,0,0,0-.532.617v3.327Zm-4.583-3.125,2.031-.006a1.308,1.308,0,0,0-.306-.792.881.881,0,0,0-.675-.286.949.949,0,0,0-.705.286A1.365,1.365,0,0,0,244.287,660.855Zm3.565,2.553a4.075,4.075,0,0,1-1.126.515,4.587,4.587,0,0,1-1.264.169,2.916,2.916,0,0,1-2.114-.739,2.71,2.71,0,0,1-.766-2.043,2.569,2.569,0,0,1,.749-1.932,2.752,2.752,0,0,1,1.995-.724,2.486,2.486,0,0,1,1.939.785,3.1,3.1,0,0,1,.711,2.162v.054h-3.7v.023a1.221,1.221,0,0,0,.425.981,1.737,1.737,0,0,0,1.162.361,2.91,2.91,0,0,0,.993-.178,4.269,4.269,0,0,0,1-.522Zm-14.858.572v-5.224h1.635v.657a2.512,2.512,0,0,1,.809-.575,2.374,2.374,0,0,1,.951-.185,1.8,1.8,0,0,1,.965.237,1.51,1.51,0,0,1,.585.721,3.375,3.375,0,0,1,.949-.743,2.366,2.366,0,0,1,1.033-.215,1.653,1.653,0,0,1,1.314.521,2.2,2.2,0,0,1,.457,1.5v3.3h-1.647V660.9a1.5,1.5,0,0,0-.173-.826.64.64,0,0,0-.565-.248,1.078,1.078,0,0,0-.631.206,2.017,2.017,0,0,0-.539.619v3.327h-1.6V660.9a1.5,1.5,0,0,0-.173-.824.64.64,0,0,0-.566-.249,1.081,1.081,0,0,0-.63.206,1.937,1.937,0,0,0-.538.619v3.327Zm-2.832-.655a2.568,2.568,0,0,1-.808.578,2.449,2.449,0,0,1-.963.178,1.669,1.669,0,0,1-1.319-.521,2.183,2.183,0,0,1-.463-1.5v-3.307h1.648v3.082a1.45,1.45,0,0,0,.178.814.63.63,0,0,0,.558.256,1.11,1.11,0,0,0,.64-.207,1.787,1.787,0,0,0,.53-.614v-3.33h1.647v5.224h-1.647Zm-4.469.42a3.472,3.472,0,0,1-.781.254,4.553,4.553,0,0,1-.889.083,3.223,3.223,0,0,1-2.225-.729,2.512,2.512,0,0,1-.822-1.976,2.572,2.572,0,0,1,.812-1.984,3.074,3.074,0,0,1,2.167-.749,4.1,4.1,0,0,1,.839.085,4.409,4.409,0,0,1,.808.255v1.284a5.573,5.573,0,0,0-.764-.255,2.774,2.774,0,0,0-.637-.083,1.52,1.52,0,0,0-1.1.384,1.4,1.4,0,0,0-.4,1.06,1.387,1.387,0,0,0,.406,1.067,1.635,1.635,0,0,0,1.16.378,2.729,2.729,0,0,0,.673-.087,4.575,4.575,0,0,0,.751-.263Zm-11.014-2.369a2.588,2.588,0,0,1,.795-1.964,2.874,2.874,0,0,1,2.068-.758,2.9,2.9,0,0,1,2.078.76,2.792,2.792,0,0,1,0,3.913,3.232,3.232,0,0,1-4.148,0A2.564,2.564,0,0,1,214.679,661.375Zm1.692,0a1.653,1.653,0,0,0,.321,1.067,1.11,1.11,0,0,0,1.706,0,1.941,1.941,0,0,0,0-2.138,1.092,1.092,0,0,0-1.7,0A1.656,1.656,0,0,0,216.371,661.373Zm-9.928,2.607v-7.707h2.892a7.593,7.593,0,0,1,1.924.188,3.806,3.806,0,0,1,2.375,1.947,4.038,4.038,0,0,1-.082,3.586,3.9,3.9,0,0,1-1.339,1.4,3.433,3.433,0,0,1-1.1.449,8.694,8.694,0,0,1-1.781.136Zm1.929-6.149v4.592h1.438a2.125,2.125,0,0,0,1.6-.643,2.522,2.522,0,0,0,0-3.309,2.129,2.129,0,0,0-1.6-.64Z" transform="translate(-36.59 -47.854)" fill="#004f9d"/>
  </g>
</svg>
